<?xml version="1.0" standalone="no"?>
<!DOCTYPE svg PUBLIC "-//W3C//DTD SVG 20010904//EN"
 "http://www.w3.org/TR/2001/REC-SVG-20010904/DTD/svg10.dtd">
<svg version="1.0" xmlns="http://www.w3.org/2000/svg"
 width="499.000000pt" height="500.000000pt" viewBox="0 0 499.000000 500.000000"
 preserveAspectRatio="xMidYMid meet">

<g transform="translate(0.000000,500.000000) scale(0.100000,-0.100000)"
fill="#000000" stroke="none">
<path d="M2320 4894 c-160 -18 -230 -29 -330 -51 -109 -24 -315 -85 -353 -105
-15 -8 0 -27 106 -141 249 -269 405 -488 563 -792 65 -125 182 -400 199 -467
5 -21 16 -27 63 -38 263 -59 561 -201 827 -395 64 -47 123 -85 131 -85 8 0 36
19 62 43 47 42 68 61 328 285 182 156 204 165 259 101 40 -48 41 -45 -99 -386
-106 -260 -136 -339 -136 -361 0 -13 59 -168 131 -344 110 -270 130 -327 125
-357 -7 -46 -38 -71 -86 -71 -42 0 -56 9 -180 121 -140 125 -392 339 -400 339
-5 0 -49 -31 -100 -68 -207 -155 -443 -283 -659 -358 -68 -24 -125 -45 -126
-46 -1 -2 -10 -46 -19 -98 -82 -457 -290 -942 -576 -1341 -36 -49 -71 -99 -78
-109 -12 -17 -9 -19 40 -29 163 -36 269 -45 488 -45 166 0 255 4 338 18 524
82 982 311 1348 674 193 191 329 379 455 627 86 171 143 325 188 505 52 212
66 330 66 575 0 309 -38 534 -138 815 -49 138 -170 381 -251 504 -381 574
-975 954 -1661 1061 -95 15 -450 28 -525 19z"/>
<path d="M1405 4632 c-232 -120 -417 -256 -599 -438 -188 -187 -323 -375 -447
-619 -118 -235 -195 -477 -236 -745 -24 -160 -24 -510 0 -670 41 -268 118
-510 236 -745 126 -248 262 -436 455 -627 195 -194 396 -336 650 -459 136 -66
401 -163 418 -153 7 5 81 103 150 199 65 91 178 288 244 423 84 173 142 321
198 512 40 134 97 379 91 388 -1 1 -44 -4 -96 -13 -137 -22 -379 -20 -524 5
-101 17 -396 105 -433 129 -10 6 -2 29 37 102 57 107 117 278 137 389 17 96
17 294 0 390 -19 107 -69 248 -131 373 l-54 107 34 14 c85 36 319 106 405 122
70 13 148 18 292 19 193 0 198 0 192 20 -4 11 -28 75 -55 143 -122 306 -291
591 -515 867 -76 95 -301 335 -312 335 -4 0 -65 -31 -137 -68z m-3 -1637 c52
-97 101 -241 118 -345 22 -139 6 -316 -40 -460 -26 -79 -92 -214 -124 -254
l-24 -29 -142 89 c-166 104 -307 214 -442 343 -107 101 -124 134 -107 196 18
63 256 278 464 418 125 85 217 138 234 135 8 -2 36 -43 63 -93z"/>
<path d="M1203 2580 c-73 -30 -47 -160 32 -160 106 0 123 147 20 165 -17 2
-40 0 -52 -5z"/>
</g>
</svg>
