<?xml version="1.0" standalone="no"?>
<!DOCTYPE svg PUBLIC "-//W3C//DTD SVG 20010904//EN"
 "http://www.w3.org/TR/2001/REC-SVG-20010904/DTD/svg10.dtd">
<svg version="1.0" xmlns="http://www.w3.org/2000/svg"
 width="24.000000pt" height="24.000000pt" viewBox="0 0 24.000000 24.000000"
 preserveAspectRatio="xMidYMid meet">

<g transform="translate(0.000000,24.000000) scale(0.100000,-0.100000)"
fill="#000000" stroke="none">
<path d="M55 165 c-16 -9 -37 -23 -45 -31 -13 -14 -12 -18 15 -39 44 -36 79
-40 127 -15 l41 21 23 -22 24 -22 0 64 -1 64 -23 -26 c-22 -26 -23 -26 -48 -8
-37 27 -78 32 -113 14z m105 -25 l25 -20 -25 -20 c-14 -11 -40 -20 -60 -20
-20 0 -46 9 -60 20 l-25 20 25 20 c32 25 88 25 120 0z m70 -20 c0 -11 -4 -20
-10 -20 -5 0 -10 9 -10 20 0 11 5 20 10 20 6 0 10 -9 10 -20z"/>
<path d="M72 120 c0 -19 2 -27 5 -17 2 9 2 25 0 35 -3 9 -5 1 -5 -18z"/>
<path d="M110 120 c0 -13 5 -18 15 -14 8 4 15 10 15 14 0 4 -7 10 -15 14 -10
4 -15 -1 -15 -14z"/>
</g>
</svg>
